<svg width="48" height="48" viewBox="0 0 48 48" fill="none" xmlns="http://www.w3.org/2000/svg">
<path d="M20 32H28C29.1 32 30 31.1 30 30V20H33.18C34.96 20 35.86 17.84 34.6 16.58L25.42 7.40001C25.235 7.21461 25.0152 7.06751 24.7732 6.96715C24.5313 6.86678 24.2719 6.81512 24.01 6.81512C23.7481 6.81512 23.4887 6.86678 23.2468 6.96715C23.0048 7.06751 22.785 7.21461 22.6 7.40001L13.42 16.58C12.16 17.84 13.04 20 14.82 20H18V30C18 31.1 18.9 32 20 32ZM12 36H36C37.1 36 38 36.9 38 38C38 39.1 37.1 40 36 40H12C10.9 40 10 39.1 10 38C10 36.9 10.9 36 12 36Z" fill="#333333"/>
</svg>
