<svg width="32" height="33" viewBox="0 0 32 33" fill="none" xmlns="http://www.w3.org/2000/svg">
<path d="M7.79984 23.3C8.93317 22.4333 10.1998 21.75 11.5998 21.25C12.9998 20.75 14.4665 20.5 15.9998 20.5C17.5332 20.5 18.9998 20.75 20.3998 21.25C21.7998 21.75 23.0665 22.4333 24.1998 23.3C24.9776 22.3889 25.5832 21.3556 26.0165 20.2C26.4498 19.0444 26.6665 17.8111 26.6665 16.5C26.6665 13.5444 25.6276 11.0278 23.5498 8.95C21.4721 6.87222 18.9554 5.83333 15.9998 5.83333C13.0443 5.83333 10.5276 6.87222 8.44984 8.95C6.37206 11.0278 5.33317 13.5444 5.33317 16.5C5.33317 17.8111 5.54984 19.0444 5.98317 20.2C6.4165 21.3556 7.02206 22.3889 7.79984 23.3ZM15.9998 17.8333C14.6887 17.8333 13.5832 17.3833 12.6832 16.4833C11.7832 15.5833 11.3332 14.4778 11.3332 13.1667C11.3332 11.8556 11.7832 10.75 12.6832 9.85C13.5832 8.95 14.6887 8.5 15.9998 8.5C17.3109 8.5 18.4165 8.95 19.3165 9.85C20.2165 10.75 20.6665 11.8556 20.6665 13.1667C20.6665 14.4778 20.2165 15.5833 19.3165 16.4833C18.4165 17.3833 17.3109 17.8333 15.9998 17.8333ZM15.9998 29.8333C14.1554 29.8333 12.4221 29.4833 10.7998 28.7833C9.17762 28.0833 7.7665 27.1333 6.5665 25.9333C5.3665 24.7333 4.4165 23.3222 3.7165 21.7C3.0165 20.0778 2.6665 18.3444 2.6665 16.5C2.6665 14.6556 3.0165 12.9222 3.7165 11.3C4.4165 9.67778 5.3665 8.26666 6.5665 7.06666C7.7665 5.86666 9.17762 4.91666 10.7998 4.21666C12.4221 3.51666 14.1554 3.16666 15.9998 3.16666C17.8443 3.16666 19.5776 3.51666 21.1998 4.21666C22.8221 4.91666 24.2332 5.86666 25.4332 7.06666C26.6332 8.26666 27.5832 9.67778 28.2832 11.3C28.9832 12.9222 29.3332 14.6556 29.3332 16.5C29.3332 18.3444 28.9832 20.0778 28.2832 21.7C27.5832 23.3222 26.6332 24.7333 25.4332 25.9333C24.2332 27.1333 22.8221 28.0833 21.1998 28.7833C19.5776 29.4833 17.8443 29.8333 15.9998 29.8333Z" fill="#333333"/>
</svg>
