<svg width="40" height="41" viewBox="0 0 40 41" fill="none" xmlns="http://www.w3.org/2000/svg">
<g clip-path="url(#clip0_182_1154)">
<path d="M20 2.16667V38.8333M28.3333 8.83334H15.8333C14.2862 8.83334 12.8025 9.44792 11.7085 10.5419C10.6146 11.6358 10 13.1196 10 14.6667C10 16.2138 10.6146 17.6975 11.7085 18.7915C12.8025 19.8854 14.2862 20.5 15.8333 20.5H24.1667C25.7138 20.5 27.1975 21.1146 28.2915 22.2085C29.3854 23.3025 30 24.7862 30 26.3333C30 27.8804 29.3854 29.3642 28.2915 30.4581C27.1975 31.5521 25.7138 32.1667 24.1667 32.1667H10" stroke="#E6E6E6" stroke-width="3.5" stroke-linecap="round" stroke-linejoin="round"/>
</g>
<defs>
<clipPath id="clip0_182_1154">
<rect width="40" height="40" fill="white" transform="translate(0 0.5)"/>
</clipPath>
</defs>
</svg>
