<svg width="26" height="26" viewBox="0 0 26 26" fill="none" xmlns="http://www.w3.org/2000/svg">
<path d="M12.9999 18.7146L8.50403 21.4229C8.30542 21.5493 8.09778 21.6035 7.88112 21.5854C7.66445 21.5674 7.47487 21.4951 7.31237 21.3688C7.14987 21.2424 7.02348 21.0846 6.9332 20.8953C6.84292 20.7061 6.82487 20.4938 6.87903 20.2583L8.0707 15.1396L4.08945 11.7C3.9089 11.5375 3.79623 11.3523 3.75145 11.1443C3.70667 10.9363 3.72003 10.7333 3.79153 10.5354C3.86303 10.3375 3.97137 10.175 4.11653 10.0479C4.2617 9.92081 4.46031 9.83956 4.71237 9.80417L9.96653 9.34376L11.9978 4.52292C12.0881 4.30626 12.2282 4.14376 12.4181 4.03542C12.6081 3.92709 12.802 3.87292 12.9999 3.87292C13.1978 3.87292 13.3917 3.92709 13.5816 4.03542C13.7716 4.14376 13.9117 4.30626 14.002 4.52292L16.0332 9.34376L21.2874 9.80417C21.5401 9.84029 21.7388 9.92154 21.8832 10.0479C22.0276 10.1743 22.136 10.3368 22.2082 10.5354C22.2804 10.734 22.2941 10.9373 22.2494 11.1453C22.2046 11.3533 22.0916 11.5382 21.9103 11.7L17.929 15.1396L19.1207 20.2583C19.1749 20.4931 19.1568 20.7054 19.0665 20.8953C18.9763 21.0853 18.8499 21.2431 18.6874 21.3688C18.5249 21.4944 18.3353 21.5666 18.1186 21.5854C17.902 21.6042 17.6943 21.55 17.4957 21.4229L12.9999 18.7146Z" fill="#FFB700"/>
</svg>
