<svg width="32" height="33" viewBox="0 0 32 33" fill="none" xmlns="http://www.w3.org/2000/svg">
<g clip-path="url(#clip0_75_296)">
<path d="M1.3335 1.83334H6.66683L10.2402 19.6867C10.3621 20.3005 10.696 20.8519 11.1836 21.2444C11.6711 21.6369 12.2811 21.8453 12.9068 21.8333H25.8668C26.4926 21.8453 27.1026 21.6369 27.5901 21.2444C28.0776 20.8519 28.4116 20.3005 28.5335 19.6867L30.6668 8.5H8.00016M13.3335 28.5C13.3335 29.2364 12.7365 29.8333 12.0002 29.8333C11.2638 29.8333 10.6668 29.2364 10.6668 28.5C10.6668 27.7636 11.2638 27.1667 12.0002 27.1667C12.7365 27.1667 13.3335 27.7636 13.3335 28.5ZM28.0002 28.5C28.0002 29.2364 27.4032 29.8333 26.6668 29.8333C25.9305 29.8333 25.3335 29.2364 25.3335 28.5C25.3335 27.7636 25.9305 27.1667 26.6668 27.1667C27.4032 27.1667 28.0002 27.7636 28.0002 28.5Z" stroke="#333333" stroke-width="3" stroke-linecap="round" stroke-linejoin="round"/>
</g>
<defs>
<clipPath id="clip0_75_296">
<rect width="32" height="32" fill="white" transform="translate(0 0.5)"/>
</clipPath>
</defs>
</svg>
